<?xml version="1.0" standalone="no"?>
<!DOCTYPE svg PUBLIC "-//W3C//DTD SVG 20010904//EN"
 "http://www.w3.org/TR/2001/REC-SVG-20010904/DTD/svg10.dtd">
<svg version="1.0" xmlns="http://www.w3.org/2000/svg"
 width="1090.000000pt" height="1090.000000pt" viewBox="0 0 1090.000000 1090.000000"
 preserveAspectRatio="xMidYMid meet">
<metadata>
Created by potrace 1.14, written by Peter Selinger 2001-2017
</metadata>
<g transform="translate(0.000000,1090.000000) scale(0.100000,-0.100000)"
fill="#000000" stroke="none">
<path d="M7093 10628 c-22 -36 -33 -63 -33 -86 l0 -25 -23 21 c-20 18 -32 21
-104 18 -48 -2 -89 -8 -98 -16 -13 -10 -15 -9 -15 7 0 30 -29 63 -56 63 -39 0
-61 -17 -74 -54 -15 -46 -30 -56 -72 -49 -28 4 -38 11 -42 30 -14 55 -98 55
-121 0 -7 -18 -23 -38 -34 -45 -31 -18 -29 -76 4 -98 14 -9 36 -14 50 -11 16
3 24 0 22 -7 -2 -6 -12 -12 -23 -14 -43 -7 -103 -42 -110 -64 -4 -13 -16 -29
-26 -37 -14 -9 -19 -23 -16 -47 2 -28 -2 -37 -22 -48 -35 -17 -47 -11 -42 22
5 37 -19 57 -55 48 -16 -4 -41 -10 -58 -13 -16 -3 -36 -10 -42 -15 -24 -19
-14 -64 21 -104 30 -34 32 -40 18 -45 -30 -11 -45 -37 -40 -69 4 -26 0 -33
-28 -50 -19 -10 -36 -29 -39 -42 -4 -13 -21 -30 -38 -38 -26 -12 -33 -22 -35
-52 -3 -33 1 -40 42 -70 33 -26 42 -38 35 -49 -15 -24 -10 -49 16 -73 l26 -24
-35 -32 c-35 -33 -43 -56 -51 -146 -3 -29 -11 -64 -19 -79 -34 -65 43 -126 94
-75 26 26 34 25 48 -5 7 -14 28 -35 47 -46 35 -21 49 -59 20 -59 -8 0 -19 -9
-25 -19 -13 -25 -13 -118 0 -126 6 -4 4 -20 -5 -43 -10 -22 -13 -48 -9 -67 9
-42 14 -99 13 -175 0 -99 19 -140 69 -140 23 0 30 -14 12 -25 -16 -10 -11 -54
9 -83 10 -15 22 -40 25 -55 6 -26 5 -28 -16 -21 -34 11 -58 7 -79 -12 -17 -16
-19 -16 -19 -1 0 27 -37 57 -70 57 -24 0 -35 -7 -51 -34 -20 -34 -49 -40 -49
-11 0 25 -29 43 -72 43 -59 1 -67 -9 -67 -83 1 -55 4 -68 26 -90 14 -14 22
-26 17 -27 -5 0 -13 -2 -19 -3 -47 -7 -79 -45 -61 -73 3 -6 -2 -13 -11 -17
-10 -3 -19 -2 -21 3 -5 15 -81 91 -102 102 -26 14 -68 -4 -75 -32 -8 -30 15
-84 54 -128 49 -56 59 -67 77 -95 9 -14 29 -32 43 -40 l26 -14 -31 -1 c-23 0
-42 11 -77 46 -38 37 -52 45 -71 40 -27 -7 -74 15 -112 52 -13 12 -28 22 -34
22 -7 0 -7 6 1 18 26 42 -39 164 -79 146 -9 -4 -36 -9 -59 -12 -32 -3 -43 0
-43 10 0 7 -13 25 -29 40 -20 20 -27 34 -24 51 7 36 -26 56 -85 50 -61 -7 -88
-31 -77 -70 5 -15 7 -34 6 -41 -1 -8 5 -24 13 -37 17 -25 9 -39 -13 -26 -23
15 -53 -1 -67 -35 -8 -19 -16 -34 -19 -34 -8 0 -35 71 -35 91 0 23 -34 59 -55
59 -21 0 -68 -47 -60 -60 3 -6 -1 -10 -9 -10 -13 0 -12 6 5 35 12 20 30 41 40
49 25 17 52 83 45 111 -5 21 -3 21 48 17 70 -6 96 8 96 53 0 25 5 35 20 40 11
3 20 10 20 14 0 5 10 6 23 4 14 -3 29 2 36 11 8 9 19 16 26 16 22 0 65 60 65
91 0 34 -36 62 -72 55 -22 -4 -24 -1 -20 25 3 21 -3 37 -23 61 -23 27 -25 34
-12 36 9 2 27 -4 39 -12 28 -20 52 -20 68 -2 6 8 21 16 33 18 12 2 28 16 35
31 12 24 11 31 -2 53 -11 16 -26 24 -44 24 -20 0 -33 9 -49 34 -12 19 -33 36
-45 38 -22 4 -22 5 4 16 28 11 39 37 42 92 1 16 7 35 14 42 6 6 12 22 12 34 0
13 5 35 10 49 7 19 7 33 -2 48 -6 12 -12 30 -13 39 -1 10 -9 26 -18 36 -23 25
-21 42 2 42 25 0 51 37 51 72 0 21 -10 35 -42 59 -38 27 -49 30 -94 27 -42 -4
-54 -1 -63 14 -6 10 -18 18 -26 18 -8 0 -15 6 -15 13 0 16 -65 87 -80 87 -18
0 -40 27 -40 49 0 12 -9 30 -21 42 -17 17 -29 20 -62 15 -23 -3 -49 -2 -57 4
-10 6 -11 10 -2 10 22 0 52 40 52 70 0 37 -50 92 -97 108 -46 15 -102 4 -143
-29 l-36 -27 -2 23 c-1 16 5 26 18 30 21 7 36 45 26 70 -3 8 -17 19 -30 25
-27 10 -36 46 -25 92 15 57 -63 97 -93 48 -7 -11 -22 -20 -33 -20 -40 0 -58
-29 -44 -68 8 -22 8 -22 -16 -6 -14 9 -36 14 -49 12 -22 -4 -23 -3 -14 17 18
39 -7 102 -52 131 l-39 26 -44 -21 c-24 -12 -53 -21 -65 -21 -25 0 -52 -35
-52 -67 0 -14 -6 -23 -15 -23 -8 0 -15 4 -15 9 0 36 -69 54 -92 23 -7 -9 -26
-23 -42 -30 -24 -11 -31 -10 -46 3 -21 19 -50 19 -86 0 -19 -9 -32 -11 -38 -5
-6 6 -25 10 -42 10 -20 0 -44 10 -62 25 -17 15 -42 25 -60 25 -35 0 -49 24
-27 46 19 19 20 68 2 83 -8 6 -22 12 -33 14 -10 2 -32 9 -47 15 -51 21 -86
-16 -72 -78 6 -25 4 -30 -13 -30 -11 0 -31 9 -45 20 -28 22 -58 25 -87 10 -15
-8 -22 -6 -32 8 -20 29 -49 40 -88 35 -89 -13 -91 -64 -4 -155 46 -48 -35 -35
-89 15 -54 50 -102 47 -121 -6 -7 -20 -6 -31 7 -45 10 -11 14 -26 10 -41 -5
-19 -10 -22 -32 -16 -66 17 -104 -1 -104 -50 0 -30 28 -73 59 -89 10 -6 21
-12 24 -14 2 -2 -2 -7 -9 -11 -9 -6 -26 0 -49 15 -19 13 -45 24 -58 24 -13 0
-34 5 -48 11 -35 16 -74 4 -82 -26 -7 -30 24 -105 45 -106 9 -1 1 -6 -18 -12
-21 -7 -41 -23 -53 -44 -11 -18 -24 -33 -29 -33 -5 0 -18 -20 -29 -45 -18 -41
-22 -45 -40 -35 -25 14 -68 3 -80 -20 -13 -25 -13 -63 1 -77 6 -6 14 -26 18
-44 6 -30 3 -36 -24 -55 -23 -16 -35 -18 -52 -11 -48 21 -99 -46 -72 -95 7
-12 14 -36 15 -53 2 -32 35 -65 65 -65 24 0 59 34 59 57 0 13 3 14 12 5 8 -8
9 -18 1 -34 -28 -59 -36 -105 -22 -129 7 -13 12 -34 10 -46 -1 -14 8 -29 27
-43 22 -16 28 -27 24 -46 -6 -31 -20 -40 -35 -21 -30 36 -87 18 -87 -27 0 -13
-7 -29 -15 -36 -20 -16 -19 -54 1 -74 11 -12 31 -15 74 -14 54 3 57 2 50 -17
-11 -30 8 -74 35 -81 21 -5 22 -9 13 -34 -7 -21 -6 -36 5 -57 8 -16 12 -44 10
-64 -4 -30 0 -40 22 -57 27 -21 76 -21 118 0 12 6 17 5 17 -5 0 -25 37 -50 69
-45 34 5 41 -5 41 -56 0 -26 12 -45 60 -95 33 -34 65 -74 72 -89 7 -14 25 -31
40 -36 38 -14 80 25 76 69 -3 29 -2 30 34 27 20 -1 53 4 72 12 40 17 52 8 48
-34 -2 -20 7 -34 40 -60 23 -19 51 -37 63 -40 11 -3 25 -17 32 -31 22 -46 101
-109 137 -109 16 0 26 -6 26 -14 0 -19 107 -96 132 -96 10 0 27 9 38 20 l21
21 18 -22 c12 -16 34 -24 75 -30 32 -4 61 -10 64 -14 4 -4 -5 -16 -21 -27 -19
-14 -27 -28 -27 -50 0 -28 -2 -29 -29 -23 -60 13 -99 -34 -76 -92 11 -26 11
-34 0 -43 -9 -8 -15 -8 -20 0 -12 19 -50 10 -78 -19 -33 -36 -36 -76 -4 -92
12 -7 35 -23 51 -36 21 -18 36 -22 56 -18 33 7 46 -7 25 -25 -25 -21 -19 -67
11 -83 37 -19 19 -27 -73 -32 -59 -3 -81 -9 -90 -22 -19 -25 -16 -57 8 -79 18
-16 40 -20 149 -22 80 -3 135 0 148 7 15 8 21 8 25 -2 6 -20 -50 -47 -99 -47
-35 0 -50 -5 -68 -25 -13 -14 -28 -25 -33 -25 -6 0 -22 -9 -37 -21 -14 -11
-30 -18 -35 -15 -5 3 -20 -3 -34 -14 l-26 -20 -3 27 c-4 37 -59 73 -109 73
-41 0 -46 -4 -70 -65 -16 -37 -19 -40 -51 -37 -19 2 -46 -2 -61 -7 -16 -6 -27
-7 -27 -1 0 15 -37 31 -55 24 -21 -9 -75 -88 -75 -111 0 -24 19 -43 41 -43 9
0 22 -7 29 -15 7 -8 23 -15 36 -15 29 0 30 -3 2 -41 -22 -29 -22 -30 -4 -60
l18 -31 -42 7 c-23 4 -53 13 -68 20 -41 22 -91 -19 -75 -62 4 -14 3 -15 -6 -7
-7 6 -13 27 -13 45 -1 41 -33 109 -52 109 -21 0 -27 28 -8 35 9 3 27 22 40 42
26 41 23 82 -8 90 -15 4 -17 11 -13 41 3 21 10 42 14 48 5 6 12 38 15 70 5 49
3 63 -13 83 -26 32 -72 32 -97 -2 l-19 -26 -17 21 c-13 17 -27 21 -63 20 -38
-2 -45 1 -41 13 4 8 14 15 23 15 47 0 89 112 58 154 -18 24 -66 24 -86 0 -10
-12 -29 -19 -50 -19 -19 0 -41 -5 -50 -12 -24 -19 -27 -16 -23 21 3 29 -1 38
-32 62 -20 16 -36 37 -36 46 0 10 -8 25 -18 35 -10 10 -26 30 -35 46 -11 16
-26 27 -40 27 -13 0 -28 5 -34 11 -6 6 -26 11 -44 12 -19 1 -33 4 -32 7 30 89
-15 133 -103 102 -37 -14 -52 -26 -70 -57 -25 -45 -49 -54 -135 -49 -36 2 -63
-3 -81 -14 -23 -13 -32 -14 -46 -4 -43 31 -88 25 -107 -15 -14 -27 -35 -53
-44 -53 -4 0 -7 16 -7 36 0 51 -34 76 -96 70 -83 -8 -136 -65 -139 -149 -2
-32 -6 -44 -15 -40 -15 6 -26 31 -18 44 10 16 -7 50 -29 59 -15 5 -29 3 -44
-6 -18 -11 -26 -11 -48 0 -15 8 -33 23 -41 35 -33 46 -116 6 -99 -48 3 -10 1
-22 -5 -26 -14 -9 -13 -58 2 -73 7 -7 21 -12 33 -13 15 0 13 -4 -12 -15 -17
-7 -36 -21 -41 -31 -9 -15 -12 -14 -34 11 -17 21 -35 29 -68 32 -56 6 -92 -12
-104 -51 -5 -17 -16 -44 -24 -62 -25 -50 -8 -83 53 -108 28 -11 52 -23 53 -28
9 -20 36 -37 57 -37 14 0 40 -8 59 -17 34 -16 37 -16 56 2 11 10 20 27 20 38
0 15 4 17 18 11 9 -4 32 -8 50 -8 30 1 33 -2 30 -25 -3 -22 -8 -26 -34 -26
-36 0 -104 -57 -104 -87 0 -11 -8 -18 -20 -18 -13 0 -20 7 -20 18 0 28 -35 55
-59 47 -24 -7 -73 -66 -95 -115 -11 -23 -14 -27 -10 -10 3 14 10 45 15 69 5
25 19 55 30 67 43 46 -8 113 -62 83 -13 -7 -35 -12 -49 -10 -33 3 -65 -30 -57
-60 11 -40 -3 -79 -28 -79 -27 0 -55 -29 -55 -59 0 -30 -56 -80 -100 -87 -45
-8 -80 -30 -80 -50 0 -11 -5 -14 -16 -10 -9 3 -19 6 -22 6 -4 0 -8 12 -8 26
-3 49 -59 69 -94 34 -11 -11 -27 -20 -35 -20 -21 0 -39 -43 -31 -73 4 -16 17
-29 36 -35 47 -17 36 -44 -25 -64 -29 -9 -44 -22 -55 -45 -12 -26 -21 -33 -46
-33 -39 0 -84 -53 -84 -99 0 -38 27 -52 96 -48 45 2 64 0 64 -9 0 -12 -50 -37
-66 -33 -22 6 -95 -24 -105 -42 -22 -41 13 -89 59 -81 6 2 17 -9 24 -23 11
-24 9 -29 -20 -51 -36 -29 -43 -72 -16 -98 20 -21 38 -22 111 -10 26 4 31 2
27 -9 -3 -8 -18 -17 -34 -21 -16 -3 -44 -19 -61 -36 -18 -16 -38 -30 -45 -30
-16 0 -34 -31 -34 -59 0 -28 42 -53 90 -55 30 0 36 -3 28 -13 -6 -7 -8 -26 -4
-43 3 -16 9 -45 12 -62 3 -18 12 -48 21 -66 14 -32 13 -34 -11 -53 -44 -34
-25 -109 27 -109 9 0 31 -7 50 -16 29 -14 33 -20 32 -54 0 -30 -5 -41 -21 -49
-49 -22 -32 -111 21 -111 14 0 34 -9 45 -20 11 -11 31 -20 45 -20 49 0 85 66
53 98 -6 6 -9 15 -5 18 9 9 37 -15 37 -31 0 -10 10 -25 50 -72 6 -7 21 -13 33
-13 12 0 28 -9 35 -20 13 -22 66 -28 77 -9 5 7 14 4 26 -7 26 -23 24 -44 -4
-44 -13 0 -28 -5 -35 -12 -16 -16 -15 -67 2 -74 8 -3 16 -19 20 -35 11 -55 72
-63 100 -14 6 10 21 29 33 42 21 24 21 24 28 4 7 -24 44 -36 81 -27 20 5 32 2
46 -13 10 -12 31 -21 48 -21 20 0 31 -6 35 -20 7 -22 44 -35 78 -27 13 4 32
24 46 50 20 37 27 43 51 39 28 -4 62 19 72 49 4 11 14 8 44 -13 37 -25 112
-36 138 -20 14 8 67 7 99 -2 68 -20 108 70 50 112 l-27 20 32 36 c18 20 32 46
32 57 0 27 27 35 49 15 14 -13 30 -15 74 -10 31 4 62 13 68 20 13 16 65 19 74
4 8 -12 62 -13 69 -1 3 4 16 6 29 4 14 -3 29 3 41 16 11 12 31 21 49 21 16 0
53 7 81 15 57 17 79 42 74 84 -2 20 3 26 27 31 17 4 47 23 67 44 41 41 58 40
58 -4 0 -18 8 -34 21 -43 20 -15 20 -15 -5 -40 -45 -45 -28 -96 37 -112 28 -7
38 -35 13 -35 -16 0 -48 -39 -41 -50 2 -4 7 -22 10 -40 9 -50 12 -53 74 -45
67 8 87 18 96 45 9 28 32 25 39 -5 8 -33 38 -48 70 -35 25 9 37 -2 17 -15 -13
-7 -65 -84 -74 -109 -11 -29 18 -66 51 -66 38 0 79 39 182 174 19 25 38 45 43
46 16 0 6 -55 -16 -84 -31 -40 -36 -56 -26 -83 5 -13 4 -25 -1 -28 -6 -4 -10
-24 -10 -45 0 -21 -5 -42 -10 -45 -5 -3 -10 -18 -10 -33 0 -23 -2 -24 -12 -10
-25 32 -86 23 -130 -20 -31 -28 -35 -57 -14 -81 7 -9 18 -30 24 -48 9 -27 8
-32 -8 -36 -12 -3 -23 -20 -30 -45 -8 -33 -15 -41 -37 -44 -43 -5 -51 -30 -28
-95 16 -46 25 -59 43 -61 24 -4 106 30 117 48 10 16 24 2 18 -19 -6 -24 22
-51 53 -51 37 0 29 -15 -32 -55 -52 -35 -56 -40 -52 -71 4 -38 -2 -41 -37 -18
-16 11 -40 15 -72 12 l-47 -3 -8 42 c-12 74 -45 107 -84 85 -13 -7 -23 -3 -41
18 -12 15 -23 33 -23 39 0 19 -76 90 -104 97 -17 4 -35 0 -52 -11 -23 -15 -26
-22 -21 -55 5 -37 4 -39 -26 -42 -22 -2 -35 -11 -47 -32 -9 -16 -21 -31 -27
-33 -14 -5 -25 24 -13 32 30 18 -18 127 -61 140 -43 14 -88 -30 -73 -70 4 -9
-6 -33 -21 -55 -15 -21 -24 -43 -21 -49 4 -5 2 -12 -4 -16 -5 -3 -10 -2 -10 3
0 16 -45 28 -82 22 -21 -4 -42 -2 -48 4 -5 5 -31 11 -57 13 -92 7 -80 11 -155
-62 -21 -21 -33 -26 -36 -17 -8 24 -45 52 -69 52 -26 0 -63 -32 -63 -55 0 -8
-5 -24 -12 -34 -9 -15 -8 -30 5 -71 19 -58 17 -64 -45 -141 -22 -27 -38 -58
-38 -72 0 -26 -12 -40 -38 -43 -39 -6 -71 -81 -43 -98 12 -7 20 -55 11 -61 -4
-2 -15 4 -25 15 -20 22 -65 26 -95 10 -21 -11 -46 -59 -53 -104 -7 -43 19
-110 54 -135 16 -12 27 -26 24 -31 -7 -11 -34 -2 -53 17 -17 16 -54 17 -70 1
-7 -7 -12 -25 -12 -40 0 -21 -5 -28 -19 -28 -11 0 -22 -4 -25 -9 -3 -5 -15 -7
-25 -4 -27 7 -60 -13 -67 -41 -6 -27 10 -66 29 -66 7 0 20 -14 29 -30 17 -30
59 -42 73 -20 14 22 23 8 12 -19 -8 -22 -8 -36 1 -55 11 -24 10 -25 -14 -14
-21 10 -30 7 -67 -18 -49 -35 -69 -87 -48 -126 6 -13 19 -35 27 -51 8 -15 26
-34 39 -43 22 -14 27 -14 68 4 24 11 47 25 51 31 4 6 19 8 35 5 21 -5 35 0 49
14 12 12 34 28 51 36 16 9 32 24 36 34 6 22 -3 52 -16 52 -18 0 -8 17 16 28
13 6 27 22 30 35 l6 24 24 -21 23 -20 -25 -30 c-16 -19 -23 -37 -19 -50 3 -12
6 -31 6 -43 0 -13 9 -32 21 -44 30 -30 10 -49 -29 -27 -31 18 -62 11 -72 -17
-9 -24 9 -116 26 -136 16 -18 18 -45 4 -54 -5 -3 -10 2 -10 13 0 10 -11 28
-25 40 -13 12 -27 34 -31 49 -9 38 -33 63 -60 63 -26 0 -54 -24 -54 -47 0 -8
-9 -26 -19 -39 -16 -21 -18 -30 -9 -54 5 -17 13 -30 18 -30 4 0 18 -10 31 -22
22 -21 23 -25 11 -51 -13 -26 -12 -32 13 -67 22 -32 25 -44 19 -76 -4 -20 -13
-49 -20 -63 -16 -31 -18 -56 -4 -81 15 -29 -15 -42 -50 -22 -25 15 -30 14 -52
0 -20 -13 -26 -27 -31 -75 -9 -87 14 -105 99 -78 30 9 37 -16 19 -67 -12 -37
-12 -46 2 -75 14 -31 14 -35 -2 -53 -22 -24 -16 -92 11 -121 19 -22 58 -25 73
-6 6 6 22 25 36 41 14 16 25 35 25 42 0 8 7 14 16 14 13 0 15 -6 9 -27 -3 -16
-13 -35 -21 -44 -8 -8 -14 -21 -14 -27 0 -7 -5 -21 -12 -32 -9 -13 -9 -27 -2
-47 11 -34 62 -44 88 -18 9 9 28 15 43 13 26 -3 28 -6 28 -51 0 -53 19 -77 61
-77 26 0 84 57 84 82 0 9 4 19 9 23 17 10 20 -11 7 -51 -7 -21 -13 -68 -12
-104 1 -59 3 -66 27 -79 25 -14 30 -13 63 10 20 13 39 33 42 43 6 18 8 17 21
-7 7 -15 26 -30 41 -33 15 -4 36 -14 47 -24 11 -10 36 -20 56 -24 32 -6 36
-10 37 -39 1 -34 31 -67 61 -67 10 0 26 9 38 19 11 10 33 26 50 34 29 15 31
15 52 -8 11 -14 25 -25 29 -25 5 0 7 -12 5 -27 -5 -32 27 -73 56 -73 10 0 30
9 44 20 14 11 31 20 39 20 7 0 24 7 36 16 42 29 19 114 -31 114 -9 0 -17 4
-17 9 0 6 31 7 73 4 58 -4 76 -2 89 10 9 9 24 13 36 10 28 -7 65 32 59 63 -3
20 0 24 20 24 13 0 31 -6 38 -14 12 -12 12 -16 0 -26 -19 -16 -19 -54 0 -70 8
-7 26 -10 40 -8 14 3 28 1 31 -3 3 -5 18 -9 33 -9 37 0 66 32 57 62 -27 87
-27 88 9 88 36 0 65 28 65 62 0 14 5 17 23 13 17 -5 33 1 54 19 17 14 42 26
55 26 29 0 58 28 58 57 0 11 -7 37 -15 57 -14 34 -14 37 5 56 24 24 25 48 5
77 -17 24 -22 21 58 38 21 4 77 74 77 95 0 5 20 28 45 52 35 33 45 50 45 75 0
45 -37 70 -80 55 -16 -6 -30 -10 -31 -9 0 1 -2 17 -4 36 -1 18 -12 46 -24 62
-25 33 -18 59 15 59 31 0 87 83 79 118 -7 30 12 54 35 47 21 -7 50 19 50 44 0
10 7 24 15 31 8 7 15 26 15 43 0 17 8 40 19 51 28 31 54 111 47 141 -4 14 -17
31 -31 37 -23 10 -24 12 -10 46 10 23 13 51 9 87 -7 61 3 74 41 49 21 -14 31
-15 50 -6 24 11 25 10 25 -23 0 -39 28 -75 59 -75 10 0 29 8 42 19 31 24 51
17 43 -15 -7 -29 7 -49 52 -70 41 -20 72 -11 81 24 3 15 13 37 20 49 8 12 13
37 11 55 -3 33 -2 33 34 30 33 -3 40 0 58 30 16 27 20 29 20 12 0 -11 3 -24 8
-28 4 -4 14 -28 22 -54 13 -42 18 -47 48 -50 53 -5 65 12 59 83 -3 33 -11 80
-17 105 -6 25 -13 65 -17 89 -5 38 -4 43 12 40 12 -3 23 -21 32 -54 17 -59 29
-75 54 -75 10 0 20 -9 24 -19 3 -11 16 -26 29 -34 27 -18 41 -67 19 -67 -34 0
-58 -135 -29 -159 8 -7 36 -18 62 -24 42 -10 49 -16 54 -42 4 -17 14 -42 24
-57 14 -21 15 -30 5 -46 -7 -11 -9 -30 -5 -45 5 -21 17 -29 62 -44 40 -12 60
-14 72 -7 18 12 34 60 36 112 1 36 3 37 30 17 27 -21 50 -19 72 6 l19 21 5
-38 c3 -22 1 -49 -4 -61 -12 -29 16 -73 47 -74 18 0 15 -4 -13 -16 -41 -17
-80 -51 -80 -69 0 -21 -18 -26 -42 -12 -70 38 -120 38 -132 0 -7 -22 -64 -36
-81 -21 -27 26 -145 -3 -165 -42 -16 -29 -4 -68 25 -81 27 -12 31 -23 15 -33
-5 -3 -10 -19 -10 -35 0 -16 5 -32 10 -35 6 -3 10 -15 10 -27 0 -14 -5 -18
-16 -14 -9 3 -18 6 -20 6 -2 0 -4 7 -4 15 0 23 -41 43 -90 43 -80 1 -106 -55
-51 -106 16 -15 33 -40 37 -57 3 -16 16 -40 27 -52 l20 -23 -25 0 c-25 0 -78
-48 -78 -71 0 -5 -7 -9 -16 -9 -9 0 -36 -20 -60 -44 l-45 -44 5 -82 c3 -60 1
-79 -7 -71 -29 29 -97 -8 -97 -52 1 -54 84 -137 137 -137 7 0 13 -9 13 -19 0
-11 4 -23 10 -26 6 -3 10 -17 10 -29 0 -32 26 -104 45 -122 17 -18 19 -30 5
-39 -32 -20 15 -105 58 -105 11 0 25 -7 32 -15 10 -12 9 -15 -7 -15 -33 0 -73
-38 -73 -70 0 -95 96 -172 188 -151 23 5 42 6 42 2 0 -14 -25 -31 -46 -31 -44
0 -66 -72 -27 -87 18 -7 8 -57 -19 -94 -18 -24 -19 -30 -6 -55 13 -28 17 -29
81 -30 76 -1 102 13 94 53 -6 32 9 29 25 -4 7 -16 22 -32 34 -37 20 -9 20 -10
2 -28 -25 -25 -24 -101 2 -143 19 -30 25 -33 87 -38 42 -3 73 -1 85 7 20 12
38 64 38 108 0 15 8 31 18 37 12 7 17 22 18 53 0 24 3 52 7 64 10 28 -14 57
-46 57 -23 0 -26 3 -21 23 4 15 0 34 -10 49 -12 18 -13 25 -4 25 7 0 23 3 36
6 19 6 22 3 22 -23 0 -20 11 -39 34 -62 29 -28 40 -33 70 -29 46 5 50 -22 5
-39 -27 -10 -30 -16 -27 -45 3 -28 10 -37 53 -60 28 -14 59 -27 70 -27 11 -1
27 -14 36 -30 l17 -29 -62 3 c-33 2 -72 8 -86 13 -58 22 -98 -29 -61 -79 12
-15 21 -37 21 -48 0 -30 47 -58 71 -43 32 20 73 15 84 -10 8 -19 19 -24 63
-26 37 -2 52 -7 52 -17 0 -8 11 -22 24 -30 13 -9 27 -27 30 -41 4 -15 20 -31
41 -41 36 -17 49 -53 20 -53 -22 0 -55 -37 -55 -60 0 -27 77 -100 105 -100 30
0 55 25 55 56 0 39 40 32 69 -14 32 -47 49 -62 77 -62 16 0 23 -8 28 -30 10
-53 105 -79 141 -40 16 18 17 25 6 63 -7 23 -17 52 -22 65 -10 25 -3 46 12 37
5 -4 21 -31 35 -61 14 -30 32 -61 40 -69 36 -35 99 -5 92 44 -2 16 3 34 14 45
17 18 18 18 53 -13 91 -80 161 15 90 123 -16 24 -16 26 -1 26 9 0 20 -10 25
-22 12 -30 57 -78 73 -78 7 0 18 -10 23 -22 13 -29 60 -36 86 -13 20 19 24 76
7 108 -8 15 -6 18 9 17 33 -4 51 0 65 13 7 7 26 14 41 15 16 1 43 13 61 27 29
22 35 23 46 10 13 -16 57 -20 76 -7 18 12 36 52 30 68 -3 8 -3 28 1 44 4 24
11 30 32 30 14 0 32 4 40 9 9 6 20 2 32 -10 32 -32 95 -17 101 24 0 7 2 23 4
37 2 14 6 40 10 58 12 60 -61 98 -108 55 -38 -34 -16 4 27 46 42 42 63 76 52
88 -3 2 3 13 14 24 25 25 24 45 -6 75 -21 21 -23 28 -13 44 13 21 59 34 52 15
-3 -6 4 -22 14 -35 14 -18 25 -22 45 -16 14 3 29 15 32 26 3 11 12 20 20 20
21 0 45 29 45 54 0 24 -28 56 -49 56 -6 0 -23 7 -36 16 -22 14 -23 18 -10 31
19 19 19 67 0 83 -16 14 -20 40 -6 40 14 0 29 53 21 74 -4 13 0 26 12 38 41
41 10 101 -58 112 -33 6 -39 11 -41 33 -1 27 -21 44 -61 53 l-22 5 21 39 c23
43 23 35 -17 164 -8 23 -14 58 -14 76 0 39 -28 68 -65 68 -27 0 -55 -18 -55
-36 0 -6 -4 -18 -10 -26 -7 -12 -11 -12 -28 3 -11 10 -39 21 -63 25 -39 7 -44
11 -41 32 6 48 4 65 -11 105 -8 21 -24 43 -36 49 -22 10 -28 31 -11 41 15 9
12 61 -5 75 -8 7 -15 21 -15 30 0 10 -11 27 -25 38 -14 11 -25 28 -25 39 0 10
-15 43 -33 73 -34 58 -65 73 -105 51 -16 -8 -21 -6 -32 17 -7 15 -16 34 -20
42 -4 8 -23 24 -43 34 -43 23 -55 47 -31 61 25 14 51 40 56 56 4 11 9 11 25
-4 23 -20 76 -23 92 -4 6 8 14 28 17 46 8 38 23 50 36 27 19 -35 128 -5 128
35 0 36 -39 107 -71 130 l-30 21 26 20 c26 20 33 56 14 75 -22 22 10 23 70 3
33 -11 67 -17 76 -14 18 7 35 35 35 59 0 20 -69 85 -91 85 -9 0 -28 9 -42 20
-14 11 -31 20 -37 20 -15 0 -70 32 -70 41 0 16 34 17 71 2 33 -13 45 -14 67
-3 63 29 142 17 142 -22 0 -27 78 -98 107 -98 14 0 38 11 55 25 32 27 53 31
90 16 13 -5 35 -12 51 -15 15 -4 27 -13 27 -20 0 -21 28 -46 51 -46 32 0 109
58 109 81 0 25 -67 109 -87 109 -8 0 -11 5 -8 10 3 6 16 10 29 10 32 0 46 19
46 64 l0 40 20 -22 c12 -12 25 -22 31 -22 5 0 15 -11 21 -25 13 -29 53 -43 79
-27 16 10 17 7 12 -43 -4 -35 -2 -60 6 -69 14 -17 5 -27 -49 -55 -19 -10 -42
-30 -50 -44 -13 -24 -13 -28 2 -43 15 -16 15 -19 -5 -45 -11 -16 -26 -29 -33
-29 -20 0 -63 -66 -70 -109 -9 -59 15 -85 71 -78 35 5 42 3 50 -16 6 -12 24
-26 40 -32 56 -18 56 -47 0 -38 -32 5 -39 1 -75 -38 -45 -49 -49 -70 -20 -99
21 -21 65 -27 75 -10 4 6 22 2 46 -11 28 -14 50 -18 70 -14 22 5 29 3 29 -8 0
-8 -7 -18 -16 -21 -13 -5 -15 -14 -9 -49 4 -23 7 -74 7 -114 0 -75 1 -79 65
-131 15 -13 37 -30 48 -37 20 -14 20 -14 -2 -30 -16 -11 -23 -26 -23 -50 0
-42 24 -60 90 -69 35 -4 55 -1 90 17 49 24 55 23 153 -21 27 -12 60 -22 74
-22 15 0 36 -12 53 -30 33 -35 56 -37 107 -10 42 22 49 20 33 -10 -16 -29 -3
-77 25 -96 13 -8 47 -18 77 -21 66 -7 117 20 150 78 18 33 23 37 29 22 4 -11
0 -25 -9 -36 -12 -13 -13 -24 -6 -45 8 -22 16 -28 46 -30 39 -3 59 -25 72 -74
13 -55 86 -62 109 -10 7 15 20 34 29 42 16 14 22 31 19 57 0 7 -13 19 -28 27
-27 15 -27 15 19 9 32 -4 53 -1 63 7 13 11 15 9 15 -13 0 -16 14 -37 40 -61
55 -49 106 -51 144 -3 15 17 31 37 36 44 31 38 33 62 9 97 -13 20 -33 40 -45
47 -14 7 -20 18 -17 30 4 12 -11 34 -48 69 -57 54 -77 60 -103 31 -17 -19 -18
-19 -38 1 -14 14 -29 19 -49 16 -26 -4 -28 -3 -14 12 8 9 15 22 15 29 0 8 8 6
25 -5 14 -9 32 -14 40 -10 8 3 26 0 40 -6 30 -13 75 12 75 42 0 12 7 20 16 20
12 0 15 -6 10 -23 -7 -28 18 -67 43 -67 10 0 44 11 76 25 44 20 60 23 71 14 8
-6 25 -8 39 -5 14 4 25 4 25 1 0 -3 -32 -37 -71 -76 -57 -57 -70 -75 -67 -97
2 -19 11 -29 28 -34 14 -3 43 -12 66 -18 48 -14 84 -1 84 30 0 24 39 72 52 64
18 -11 57 7 73 34 13 22 25 28 53 29 35 1 124 9 167 15 18 3 20 -2 17 -39 -4
-56 22 -76 93 -67 81 11 105 46 65 97 -29 36 -7 52 60 43 45 -6 53 -4 76 19
20 20 29 23 44 15 62 -33 159 43 122 96 -11 15 -90 54 -112 54 -22 0 -32 11
-22 26 5 8 32 8 82 3 41 -5 83 -6 92 -3 36 11 35 87 -1 99 -11 3 -21 16 -23
30 -5 22 -1 24 44 30 122 17 86 143 -41 145 -28 0 -31 2 -22 14 9 11 26 13 66
9 35 -4 60 -2 69 6 8 7 25 9 39 6 29 -8 67 23 67 54 0 23 -58 81 -81 81 -28 0
-29 12 -4 32 16 12 25 30 25 48 0 15 7 33 15 40 10 8 15 30 15 61 0 41 3 49
18 49 28 0 52 32 52 68 0 23 -8 36 -30 52 -46 32 -53 53 -32 89 9 17 24 31 33
31 26 0 59 39 59 69 0 17 -10 37 -27 54 -16 14 -36 37 -46 51 -23 33 -60 34
-93 1 -17 -17 -23 -32 -19 -45 4 -11 2 -20 -3 -20 -5 0 -13 29 -17 64 -4 44
-12 70 -26 82 -10 9 -19 23 -19 30 0 26 -32 46 -66 41 -29 -5 -32 -3 -38 25
-7 33 6 68 18 49 4 -6 20 -11 36 -11 34 0 55 29 44 63 -4 12 -6 36 -5 54 2 25
-3 35 -24 49 -25 16 -28 16 -72 -6 -32 -16 -48 -20 -51 -12 -10 31 -40 54 -72
56 -29 1 -36 6 -38 26 -5 31 -20 50 -49 61 -13 5 -20 14 -17 22 8 22 -34 67
-63 67 -14 0 -42 -13 -62 -30 -27 -21 -41 -26 -49 -18 -18 18 -64 12 -83 -10
-16 -21 -16 -21 -29 6 -24 52 -26 56 -41 62 -8 4 -23 12 -34 18 -22 13 -23 14
-79 32 -22 7 -49 21 -60 31 -24 23 -54 24 -85 3 -23 -17 -25 -42 -6 -101 6
-19 4 -23 -13 -23 -12 0 -37 -13 -55 -30 -39 -34 -67 -39 -67 -11 0 25 -16 36
-77 51 -41 11 -55 11 -66 1 -12 -10 -19 -6 -37 19 -13 19 -30 30 -45 30 -13 0
-35 5 -49 12 -18 8 -33 8 -48 1 -17 -7 -29 -6 -45 4 -13 9 -50 16 -90 16 -67
2 -68 2 -83 -30 -16 -35 -40 -42 -60 -18 -16 19 -38 19 -84 0 -54 -23 -85 -10
-65 27 11 20 3 59 -14 70 -6 3 8 11 30 17 23 6 44 18 47 27 11 30 6 61 -14 79
-24 22 -28 57 -5 48 25 -9 54 26 61 74 7 50 2 59 -41 68 -74 15 -103 17 -109
6 -4 -6 -15 -11 -25 -11 -14 0 -17 6 -13 28 4 32 -19 62 -48 62 -11 0 -17 6
-16 17 3 18 54 63 72 63 17 0 44 35 44 57 0 61 -81 67 -185 13 -33 -17 -75
-38 -92 -45 -30 -13 -33 -12 -33 3 0 9 21 29 45 44 28 17 45 35 46 48 2 32 3
33 27 67 13 18 31 33 41 33 10 0 20 3 23 6 3 3 36 6 72 8 75 2 99 18 98 63 -1
41 17 93 33 93 7 0 21 8 31 18 13 12 31 16 66 15 40 -2 50 2 62 20 19 28 23
111 7 131 -14 17 -118 21 -137 5 -8 -6 -14 -6 -18 -1 -3 6 1 15 9 22 24 20 18
47 -17 74 -18 14 -30 27 -27 30 3 3 37 9 75 13 68 8 69 9 80 43 l12 35 12 -26
c11 -23 47 -48 94 -63 13 -4 16 -11 10 -24 -12 -27 -16 -105 -5 -121 5 -7 20
-13 35 -13 26 0 32 -13 29 -73 -3 -60 52 -155 90 -155 31 0 67 27 67 51 0 15
7 19 39 19 22 0 44 6 51 15 14 17 50 21 50 5 0 -5 -12 -21 -26 -35 -23 -24
-25 -31 -19 -73 4 -26 11 -55 16 -64 22 -41 91 -26 108 22 6 19 20 32 46 40
28 9 37 18 42 41 4 23 8 27 19 18 8 -6 14 -19 14 -29 0 -20 26 -45 58 -55 12
-3 34 -17 47 -31 13 -13 29 -24 35 -24 6 0 19 -7 27 -16 13 -12 28 -14 77 -9
34 4 69 11 78 16 27 15 36 10 31 -15 -6 -32 28 -66 66 -66 35 0 101 59 101 89
0 11 5 23 10 26 6 3 10 16 10 29 0 15 9 27 25 34 14 6 25 16 25 22 0 5 8 10
18 10 22 0 83 37 100 61 8 12 25 19 46 19 44 0 74 26 81 70 6 34 25 67 25 42
0 -24 40 -52 73 -52 20 0 44 9 57 20 13 11 26 20 29 20 10 0 40 62 47 97 6 28
-5 66 -32 115 -2 3 5 4 16 1 11 -3 23 -16 26 -29 4 -14 14 -29 24 -34 24 -13
66 3 74 27 5 15 14 18 41 15 19 -2 38 -8 41 -13 9 -16 60 -10 77 9 21 23 22
56 2 72 -9 7 -13 21 -9 34 10 42 -33 70 -78 51 -11 -4 -18 -3 -18 4 0 6 6 11
13 11 21 0 47 34 47 61 0 19 2 21 10 9 7 -11 25 -14 67 -13 53 2 61 5 91 38
22 24 31 42 27 53 -3 9 -13 42 -21 72 -7 30 -22 61 -33 68 -18 13 -18 14 5 38
14 13 29 24 34 24 33 0 55 80 26 97 -24 14 -27 66 -4 90 17 18 19 28 11 59 -7
33 -5 41 14 60 13 13 23 34 23 47 0 13 13 36 30 52 17 16 30 37 30 47 0 24 32
23 48 -2 22 -36 102 -17 102 24 0 8 7 19 15 26 19 16 19 64 0 80 -9 7 -29 13
-45 12 -43 -1 -43 22 1 65 36 34 40 42 34 76 -4 27 -2 37 8 37 7 0 23 10 35
23 27 28 30 97 6 121 -17 17 -59 22 -68 7 -3 -5 -18 -12 -33 -16 -16 -3 -36
-14 -46 -23 -13 -12 -20 -13 -29 -4 -13 13 -11 16 59 87 50 52 58 72 37 103
-14 21 -21 24 -56 19 -61 -8 -70 -1 -47 36 59 97 -30 158 -119 81 -54 -46 -58
-20 -7 37 19 22 35 47 35 57 0 10 9 25 20 35 26 22 25 52 -1 78 -17 17 -28 19
-62 14 -23 -4 -50 -14 -59 -23 -17 -14 -18 -13 -18 16 0 19 -8 40 -20 52 -11
11 -20 25 -20 31 0 14 -67 79 -81 79 -5 0 -3 10 5 22 22 30 20 54 -5 79 -18
18 -28 20 -84 14 l-64 -7 -16 38 c-10 25 -12 41 -5 48 15 15 12 63 -6 80 -15
15 -38 21 -59 16 -5 -2 -30 -2 -55 -2 -25 1 -53 -5 -64 -13 -27 -20 -26 -73 3
-96 14 -11 18 -20 10 -24 -6 -4 -20 1 -32 11 -41 36 -72 47 -129 50 -51 3 -59
1 -77 -22 -19 -24 -23 -26 -51 -14 -34 14 -39 36 -10 45 28 9 37 51 15 75 -10
11 -23 20 -29 20 -7 0 -19 9 -29 20 -19 22 -69 27 -85 8 -9 -12 -20 -59 -25
-100 -1 -12 -5 -14 -11 -8 -6 6 -25 10 -43 10 -24 0 -37 -7 -49 -25 -16 -24
-17 -24 -45 -8 -24 14 -34 15 -59 6 -24 -9 -36 -8 -59 3 -21 10 -36 12 -54 5
-34 -13 -40 -26 -39 -87 0 -37 -4 -54 -12 -54 -21 0 -46 -35 -46 -64 0 -27 0
-27 -53 -21 -42 5 -56 4 -66 -9 -8 -9 -19 -16 -27 -16 -7 0 -33 -13 -57 -30
-25 -16 -54 -30 -65 -30 -28 0 -64 -47 -56 -74 8 -29 44 -58 64 -53 10 2 23
-5 31 -17 16 -24 20 -118 4 -113 -5 2 -9 27 -9 55 1 31 -2 49 -8 46 -5 -3 -8
-31 -7 -61 2 -42 -1 -57 -13 -64 -11 -6 -19 -5 -23 1 -3 5 -13 10 -20 10 -23
0 -105 -62 -105 -80 0 -10 -16 -20 -46 -28 -29 -8 -48 -19 -51 -30 -2 -10 -17
-23 -33 -30 -15 -7 -31 -24 -34 -37 -3 -13 -14 -26 -25 -30 -10 -3 -39 -25
-65 -49 -49 -46 -59 -83 -31 -106 20 -16 2 -40 -29 -40 -27 0 -46 -18 -46 -43
0 -19 -36 -77 -48 -77 -4 0 -15 14 -24 30 -12 21 -25 30 -43 30 -24 0 -34 13
-16 24 19 12 18 57 -2 82 -17 22 -25 25 -57 20 -28 -4 -39 -2 -44 9 -3 8 -1
17 4 20 20 12 10 61 -19 93 -17 17 -34 32 -39 32 -15 0 -112 -80 -113 -93 -1
-7 -1 -19 0 -29 3 -23 -18 -33 -25 -13 -11 27 -53 38 -80 20 -32 -20 -54 -10
-49 23 16 102 15 115 -1 133 -10 11 -30 19 -45 19 -23 0 -34 -9 -54 -40 -14
-22 -25 -54 -25 -74 0 -19 -4 -38 -10 -41 -5 -3 -10 -18 -10 -33 0 -15 -6 -43
-13 -64 -11 -30 -16 -35 -30 -26 -13 7 -15 13 -8 22 6 7 12 34 13 61 1 39 -3
52 -20 66 -12 9 -22 26 -22 36 0 10 -5 24 -11 30 -8 8 -8 13 0 17 6 4 11 20
11 36 0 20 11 40 34 64 21 20 37 49 42 70 6 34 3 40 -36 76 -33 30 -41 44 -37
62 3 13 9 40 12 61 4 21 13 37 21 37 13 0 34 29 34 48 0 13 -73 88 -94 95 -13
5 -29 -5 -62 -40 -24 -27 -44 -54 -44 -60 0 -7 -4 -13 -10 -13 -5 0 -10 9 -10
20 0 26 -41 43 -75 30 -13 -5 -27 -5 -30 -1 -7 12 18 58 44 82 25 23 27 61 6
79 -24 20 -18 25 29 25 31 0 54 7 75 23 29 21 32 22 38 5 10 -29 66 -83 86
-83 9 0 26 9 37 20 11 11 22 15 25 10 4 -6 12 -10 20 -10 8 0 25 -11 38 -24
27 -27 74 -39 127 -34 25 2 38 10 50 31 14 25 13 30 -3 58 -17 30 -16 31 3 47
12 10 22 30 24 45 3 34 23 57 30 36 3 -8 6 -25 8 -39 2 -15 14 -30 33 -40 17
-8 33 -19 36 -24 11 -15 59 -9 79 9 24 21 25 43 5 71 -11 17 -12 28 -3 58 9
29 9 42 0 56 -15 24 0 35 27 20 29 -15 53 -12 81 10 14 11 31 20 39 20 21 0
121 49 121 60 0 4 11 21 23 37 13 15 27 41 31 56 6 26 8 27 29 12 88 -62 147
66 75 164 -34 47 -38 79 -18 159 6 24 8 59 4 78 -5 25 -1 40 15 60 28 36 27
54 -9 99 -35 45 -38 60 -8 44 17 -9 28 -8 55 6 38 21 47 46 41 115 -6 63 -39
104 -101 125 -39 14 -46 20 -36 31 8 10 16 11 30 3 42 -22 94 27 71 67 -11 20
6 41 61 77 49 32 25 107 -34 107 -9 0 -22 7 -29 15 -7 8 -21 15 -31 15 -23 0
-62 -37 -54 -50 4 -6 1 -10 -5 -10 -6 0 -8 10 -4 25 4 15 0 34 -9 49 -15 22
-14 24 12 44 37 27 60 78 54 123 -5 34 -11 40 -74 73 -47 25 -77 34 -93 30
-28 -7 -41 17 -25 47 18 35 -11 65 -70 73 -45 6 -51 10 -56 34 -9 43 -19 56
-53 71 -20 9 -32 22 -32 34 0 10 -8 31 -19 45 -10 15 -21 44 -24 66 -3 21 -13
46 -21 55 -20 22 -3 41 36 41 19 0 33 8 45 26 16 25 16 28 0 56 -9 16 -17 37
-17 47 0 47 -66 56 -100 14 -26 -33 -39 -22 -47 38 -6 47 -27 79 -50 79 -12 0
-13 9 -8 40 6 36 3 42 -29 75 -63 63 -110 38 -122 -65 -5 -49 -10 -60 -23 -58
-9 2 -17 12 -18 23 -1 11 -7 40 -12 65 -5 25 -7 48 -4 53 2 4 -3 19 -12 33
-24 37 -75 30 -95 -13 -21 -46 -41 -45 -65 2 -17 34 -25 40 -57 43 -50 4 -71
-27 -70 -104 0 -44 -2 -53 -13 -44 -7 6 -15 32 -19 59 -3 27 -13 54 -21 61 -8
7 -15 23 -15 36 0 12 -7 30 -16 38 -18 19 -70 21 -81 4z m-328 -258 c17 -34
16 -35 -19 -19 -21 10 -23 14 -13 30 15 24 14 24 32 -11z m244 -6 c-15 -18
-22 -13 -13 10 3 9 10 13 16 10 5 -3 4 -12 -3 -20z m-2956 -250 c-3 -8 3 -27
14 -42 11 -15 23 -39 26 -54 10 -37 42 -54 74 -39 32 14 33 14 33 -7 0 -20 24
-46 50 -54 8 -3 -2 -9 -23 -13 -33 -6 -41 -4 -53 14 -13 18 -25 21 -78 21 -47
0 -65 4 -69 15 -4 8 -2 17 3 20 15 9 12 36 -7 57 -13 14 -31 18 -95 18 -50 0
-77 4 -73 10 3 6 15 10 25 10 11 0 38 10 62 22 23 12 54 21 69 20 15 -1 30 2
34 8 10 16 15 12 8 -6z m2187 -174 c-12 -21 -25 -26 -35 -11 -3 6 3 14 12 20
27 16 35 13 23 -9z m-1920 -10 c0 -5 -5 -10 -11 -10 -5 0 -7 5 -4 10 3 6 8 10
11 10 2 0 4 -4 4 -10z m234 -24 c3 -14 17 -28 32 -33 l26 -9 -24 -13 c-21 -11
-29 -10 -62 10 l-37 22 22 23 c28 30 35 30 43 0z m-312 -152 c5 -8 3 -14 -7
-18 -12 -4 -15 2 -14 27 0 18 3 25 6 17 3 -8 10 -20 15 -26z m-1488 -13 c-6
-6 -24 19 -24 34 1 6 7 1 15 -9 8 -11 12 -22 9 -25z m5226 -71 c11 -11 28 -20
39 -20 10 0 35 -16 55 -35 21 -19 42 -35 47 -35 5 0 9 -7 9 -15 0 -8 -6 -12
-13 -9 -19 7 -60 -28 -62 -52 0 -11 -9 -31 -18 -44 -24 -34 -21 -55 9 -77 24
-17 25 -22 14 -42 -6 -13 -10 -34 -7 -47 6 -31 1 -30 -17 4 -7 15 -11 41 -9
58 5 31 -7 47 -51 69 -25 13 -35 55 -12 55 16 0 46 37 46 56 0 6 -11 24 -25
40 -17 19 -24 37 -22 53 3 14 -3 31 -14 42 -15 15 -16 19 -4 19 8 0 24 -9 35
-20z m-1754 -60 c0 -23 -9 -26 -25 -6 -9 11 -9 15 1 19 22 9 24 8 24 -13z
m-3606 -40 c17 0 4 -12 -30 -27 -23 -9 -25 -8 -25 14 0 19 4 23 20 19 11 -3
27 -6 35 -6z m3556 -326 c20 -19 34 -37 32 -39 -7 -8 -67 34 -78 54 -17 33 6
26 46 -15z m1941 -10 c-3 -3 -12 -4 -19 -1 -8 3 -5 6 6 6 11 1 17 -2 13 -5z
m-193 -48 c-5 -13 -9 -14 -21 -4 -13 10 -13 13 4 19 23 8 25 6 17 -15z m315
-148 c-6 -11 -9 -33 -7 -48 3 -22 1 -26 -14 -22 -22 5 -24 8 -32 54 -6 33 -4
37 16 40 38 6 49 -1 37 -24z m-5632 -162 c-11 -27 -27 -17 -27 16 0 30 1 31
16 16 9 -9 14 -24 11 -32z m246 -194 c15 -16 15 -18 -3 -18 -13 0 -20 7 -20
18 0 10 2 18 3 18 2 0 11 -8 20 -18z m2092 -51 c3 -5 1 -12 -5 -16 -5 -3 -10
1 -10 9 0 18 6 21 15 7z m-1794 -224 c-5 -5 -34 -12 -63 -14 -39 -3 -49 -2
-38 6 8 6 29 11 47 11 17 0 35 5 38 10 4 6 11 7 17 4 6 -4 6 -10 -1 -17z
m1668 -453 c1 -37 -50 -42 -63 -7 -10 25 3 51 27 55 23 3 35 -13 36 -48z
m2691 27 c0 -6 -4 -13 -10 -16 -5 -3 -10 1 -10 9 0 9 5 16 10 16 6 0 10 -4 10
-9z m-30 -51 c0 -5 -5 -10 -11 -10 -5 0 -7 5 -4 10 3 6 8 10 11 10 2 0 4 -4 4
-10z m1844 -166 c23 -9 20 -24 -4 -24 -11 0 -20 7 -20 15 0 17 2 18 24 9z
m-2416 -91 c16 -16 15 -19 -15 -51 -22 -24 -37 -33 -49 -28 -31 12 2 96 38 96
4 0 16 -8 26 -17z m-1378 -42 c0 -4 -5 -12 -11 -18 -16 -16 -2 -101 20 -120
10 -8 16 -23 14 -33 -4 -16 -8 -17 -36 -5 -39 16 -50 51 -36 119 15 72 16 76
34 70 8 -3 15 -9 15 -13z m4458 -42 c-5 -16 -11 -29 -13 -29 -1 0 -5 15 -7 33
-3 28 -1 33 13 30 14 -4 16 -10 7 -34z m-3343 21 c3 -5 1 -10 -4 -10 -6 0 -11
5 -11 10 0 6 2 10 4 10 3 0 8 -4 11 -10z m-5005 -45 c0 -16 -7 -28 -17 -31
-10 -3 -26 -10 -37 -16 -22 -12 -36 4 -36 40 0 20 4 23 28 18 15 -3 34 -2 42
4 20 13 20 13 20 -15z m7424 -4 c3 -5 -1 -14 -9 -21 -13 -10 -15 -9 -15 9 0
21 14 28 24 12z m-7655 -161 c0 -9 -4 -8 -9 5 -5 11 -9 27 -9 35 0 9 4 8 9 -5
5 -11 9 -27 9 -35z m8744 3 c-7 -2 -19 -2 -25 0 -7 3 -2 5 12 5 14 0 19 -2 13
-5z m-3358 -33 c3 -5 2 -10 -4 -10 -5 0 -13 5 -16 10 -3 6 -2 10 4 10 5 0 13
-4 16 -10z m-5286 -134 c6 -7 6 -17 1 -26 -7 -12 -12 -11 -29 4 -27 24 -27 46
-1 39 10 -3 24 -10 29 -17z m4131 20 c0 -3 -4 -8 -10 -11 -5 -3 -10 -1 -10 4
0 6 5 11 10 11 6 0 10 -2 10 -4z m-1670 -356 c0 -36 33 -58 81 -55 60 4 66 -3
26 -30 -32 -22 -77 -25 -77 -5 0 4 -16 28 -35 53 -41 53 -42 57 -15 57 13 0
20 -7 20 -20z m1290 -61 c0 -9 -7 -19 -15 -23 -23 -8 -34 -47 -23 -78 17 -49
-63 -129 -113 -113 -35 11 -31 40 11 82 25 26 40 50 40 65 0 17 8 29 25 36 14
6 27 23 31 39 4 15 9 32 11 36 7 11 32 -24 33 -44z m1800 16 c0 -8 -8 -15 -18
-15 -24 0 -82 -66 -82 -92 0 -19 -25 -47 -42 -48 -5 0 -8 7 -8 15 0 9 -7 29
-15 45 -15 28 -14 30 4 30 11 0 28 9 38 19 16 17 95 58 116 60 4 1 7 -6 7 -14z
m-3996 -104 c-6 -6 -24 19 -24 34 1 6 7 1 15 -9 8 -11 12 -22 9 -25z m1031
-51 c3 -5 1 -10 -4 -10 -6 0 -11 5 -11 10 0 6 2 10 4 10 3 0 8 -4 11 -10z
m-832 -128 c23 -20 22 -27 -10 -57 -26 -24 -28 -24 -45 -7 -14 14 -15 22 -5
53 12 39 25 41 60 11z m2989 16 c39 14 40 13 24 -18 -13 -25 -17 -27 -48 -15
-13 5 -27 -3 -49 -26 -36 -39 -84 -47 -135 -23 -62 30 -46 97 17 75 43 -15 74
-14 88 3 9 11 18 12 41 3 23 -9 38 -8 62 1z m588 -63 c10 -13 9 -15 -8 -15
-15 0 -20 5 -16 15 4 8 7 15 9 15 1 0 8 -7 15 -15z m3368 -303 c-1 -15 4 -37
9 -47 6 -11 9 -43 7 -72 -3 -43 0 -55 16 -66 18 -12 16 -14 -21 -24 -21 -5
-39 -6 -39 -1 0 16 -47 27 -79 17 -91 -27 -86 -27 -88 0 0 14 -6 27 -12 29 -6
2 -11 10 -11 17 0 16 27 28 35 15 9 -14 61 -12 73 3 6 6 13 26 17 42 13 59 17
65 34 65 22 0 41 19 41 43 0 10 4 16 9 12 5 -3 9 -18 9 -33z m-5800 6 c6 -6
12 -23 12 -39 0 -31 23 -59 49 -59 40 0 52 -152 12 -163 -30 -7 -48 16 -56 72
-5 36 -15 62 -30 77 -15 15 -19 27 -13 38 11 20 0 63 -18 70 -8 3 -14 10 -14
16 0 12 37 4 58 -12z m1188 -260 c10 -12 13 -18 7 -14 -19 10 -66 -41 -60 -64
3 -11 -1 -24 -9 -31 -24 -19 -17 -66 11 -85 22 -14 30 -15 53 -4 15 7 47 12
72 11 25 -2 66 -2 91 -2 44 1 46 -1 42 -24 -5 -23 -6 -23 -29 -8 -20 13 -30
14 -49 5 -14 -7 -25 -16 -25 -20 0 -5 -11 -7 -24 -5 -30 6 -68 -30 -64 -60 2
-12 17 -31 35 -42 18 -11 32 -25 33 -32 0 -7 9 -17 20 -23 11 -6 20 -17 20
-26 0 -8 11 -26 25 -40 29 -29 31 -37 10 -54 -13 -10 -15 -9 -15 10 0 28 -27
60 -49 60 -9 0 -24 9 -34 20 -20 23 -69 27 -86 6 -6 -8 -11 -31 -11 -52 0 -69
-5 -103 -17 -115 -7 -7 -13 -24 -13 -38 0 -36 -13 -53 -34 -45 -16 6 -15 9 5
30 21 22 22 28 11 58 -7 18 -10 41 -6 50 3 9 -1 27 -10 41 -23 34 -70 34 -92
0 -9 -14 -24 -25 -34 -25 -10 0 -23 -7 -30 -15 -7 -8 -25 -15 -40 -15 -15 0
-33 -7 -40 -15 -18 -22 -50 -19 -50 4 0 14 5 18 19 14 24 -6 58 12 66 35 3 11
16 24 29 30 54 24 35 102 -25 102 -16 0 -41 7 -55 16 -13 9 -27 14 -30 11 -3
-2 -16 6 -29 19 -13 13 -33 24 -44 24 -27 0 -34 15 -20 42 l12 22 8 -21 c10
-27 44 -46 68 -38 10 3 30 0 44 -6 22 -10 31 -9 52 5 28 19 35 66 11 85 -15
13 -27 60 -27 106 0 16 -6 39 -14 52 -21 31 -19 43 8 43 20 0 23 -4 19 -34 -3
-23 2 -39 15 -52 10 -11 24 -31 31 -46 22 -52 95 -45 109 10 3 15 12 33 20 40
7 7 13 20 13 28 0 8 11 19 26 24 14 6 29 23 35 40 13 36 20 37 45 8z m2154
-14 c-18 -21 -24 -10 -8 15 7 12 14 17 16 11 2 -6 -2 -17 -8 -26z m2045 16 c3
-5 18 -10 33 -11 l27 0 -25 -11 c-42 -18 -65 -15 -68 10 -3 23 21 32 33 12z
m205 -15 c0 -16 -6 -25 -15 -25 -9 0 -27 -11 -40 -25 -23 -22 -25 -23 -25 -5
0 11 5 20 10 20 6 0 15 11 22 25 6 13 18 26 27 28 9 3 17 5 19 6 1 0 2 -10 2
-24z m-9364 -140 c-5 -21 -9 -23 -25 -13 -18 11 -18 12 3 29 26 21 30 18 22
-16z m7329 27 c6 -4 10 -26 10 -50 0 -39 -2 -42 -20 -36 -11 3 -37 8 -59 10
-48 4 -52 8 -40 41 11 34 81 56 109 35z m-5551 -37 c-4 -8 -8 -15 -10 -15 -2
0 -4 7 -4 15 0 8 4 15 10 15 5 0 7 -7 4 -15z m4147 -52 c12 -40 19 -50 47 -58
22 -6 32 -15 32 -29 0 -25 28 -56 52 -56 10 0 18 -4 18 -10 0 -5 -11 -10 -25
-10 -15 0 -25 6 -25 15 0 8 -11 22 -25 31 -20 13 -31 14 -49 6 -19 -8 -27 -6
-48 16 -53 57 -62 101 -26 126 12 9 25 16 28 16 4 0 13 -21 21 -47z m1089 -83
c0 -13 -1 -13 -10 0 -5 8 -10 22 -10 30 0 13 1 13 10 0 5 -8 10 -22 10 -30z
m2202 -72 c-17 -5 -38 -18 -47 -30 -14 -21 -15 -21 -16 -3 -2 34 2 45 24 71
l22 25 24 -27 24 -28 -31 -8z m-7982 -69 c0 -20 -31 -77 -46 -83 -20 -8 -17 7
6 37 11 14 20 32 20 41 0 9 5 16 10 16 6 0 10 -5 10 -11z m6700 -19 c0 -5 -2
-10 -4 -10 -3 0 -8 5 -11 10 -3 6 -1 10 4 10 6 0 11 -4 11 -10z m-7087 -45
c-6 -17 -25 -15 -31 3 -2 7 5 12 17 12 14 0 19 -5 14 -15z m-316 -70 c3 -9 3
-19 -1 -22 -7 -7 -36 16 -36 28 0 15 30 10 37 -6z m2521 -110 c-1 -19 4 -40
11 -48 9 -12 7 -16 -15 -20 -14 -2 -38 -1 -53 3 -14 5 -21 9 -15 9 6 1 19 21
30 46 22 54 44 60 42 10z m3543 -6 c19 -18 61 -43 93 -58 54 -23 58 -26 35
-32 -13 -4 -38 -7 -55 -8 -17 -1 -37 -7 -43 -14 -10 -12 -71 -12 -71 0 0 3 9
16 20 30 11 14 20 36 20 49 0 13 -9 29 -20 36 -11 7 -20 16 -20 20 0 13 6 9
41 -23z m2199 11 c0 -5 -5 -10 -11 -10 -5 0 -7 5 -4 10 3 6 8 10 11 10 2 0 4
-4 4 -10z m-5879 -55 c0 -5 -9 -11 -21 -13 -15 -3 -18 1 -14 13 7 17 35 17 35
0z m239 -15 c0 -5 -15 -10 -32 -9 -28 0 -30 2 -13 9 28 12 45 12 45 0z m3634
-52 c-3 -5 -12 -4 -20 3 -19 16 -18 18 6 12 11 -3 17 -9 14 -15z m-2902 -2
c44 -19 93 -80 75 -94 -31 -24 -52 -21 -97 14 -32 25 -52 34 -69 31 -17 -3
-30 2 -41 16 -11 13 -29 20 -48 20 -18 0 -32 5 -32 10 0 9 39 6 106 -8 22 -5
35 -2 45 9 17 19 19 19 61 2z m2485 -52 c-9 -9 -28 6 -21 18 4 6 10 6 17 -1 6
-6 8 -13 4 -17z m-772 -204 c17 -19 17 -21 -9 -54 -27 -37 -32 -65 -16 -96 7
-13 6 -21 -5 -30 -12 -10 -15 -9 -15 3 0 9 -11 24 -25 35 -22 18 -25 25 -19
62 6 36 47 100 65 100 3 0 14 -9 24 -20z m-865 -310 c0 -38 -11 -46 -60 -48
-35 -2 -50 -8 -70 -30 -16 -18 -36 -29 -55 -29 l-30 -2 28 11 c28 10 44 45 33
73 -3 10 6 19 27 29 47 21 59 24 94 22 28 -1 33 -5 33 -26z m-1966 -122 c14
-67 13 -79 -5 -88 -29 -16 -36 -12 -56 28 -16 33 -22 37 -55 38 -51 1 -62 14
-12 14 22 0 49 7 60 15 30 22 63 19 68 -7z m-288 -27 c-3 -5 -15 -7 -26 -4
-28 7 -25 13 6 13 14 0 23 -4 20 -9z m487 -71 c4 -16 0 -20 -18 -20 -18 0 -22
4 -18 20 3 11 11 20 18 20 7 0 15 -9 18 -20z m5307 -180 c0 -6 -11 -15 -24
-20 -13 -5 -31 -18 -39 -30 -11 -16 -17 -18 -23 -9 -4 8 5 23 25 41 31 28 61
37 61 18z m-2890 -81 c0 -6 -4 -7 -10 -4 -5 3 -10 11 -10 16 0 6 5 7 10 4 6
-3 10 -11 10 -16z m1170 -23 c0 -14 -35 -36 -56 -36 -33 0 -30 18 4 26 15 3
32 7 37 9 6 2 11 4 13 4 1 1 2 -1 2 -3z m-900 -70 c1 -22 4 -60 9 -82 7 -39 6
-41 -13 -36 -12 3 -29 13 -39 23 -10 11 -26 19 -36 19 -10 0 -23 11 -29 25
-11 23 -10 25 14 25 44 0 64 17 64 57 0 30 2 34 15 23 9 -7 15 -30 15 -54z
m2934 5 c-2 -2 -10 -1 -19 3 -13 5 -13 9 -3 26 13 20 13 20 19 -2 3 -13 4 -25
3 -27z m-4533 -14 c11 3 26 14 32 24 15 23 27 24 27 3 0 -9 -23 -39 -51 -66
-48 -46 -52 -48 -65 -31 -7 10 -14 27 -14 39 0 11 -5 25 -10 30 -6 6 -8 18 -4
27 5 15 9 14 35 -7 18 -16 36 -22 50 -19z m2169 -37 c0 -5 -5 -10 -11 -10 -5
0 -7 5 -4 10 3 6 8 10 11 10 2 0 4 -4 4 -10z m2680 -21 c0 -11 -4 -17 -10 -14
-5 3 -10 15 -10 26 0 11 5 17 10 14 6 -3 10 -15 10 -26z m-2342 -120 c1 -8
-12 -22 -29 -32 -30 -16 -31 -20 -26 -62 7 -67 -7 -63 -32 9 -12 34 -31 70
-41 79 -11 9 -20 21 -20 25 0 10 36 29 65 35 22 4 79 -33 83 -54z m-2606 19
c-6 -6 -15 -8 -19 -4 -4 4 -1 11 7 16 19 12 27 3 12 -12z m-3001 -56 c-6 -11
-11 -30 -11 -41 0 -17 -3 -18 -22 -8 -50 26 -50 28 -23 52 14 13 25 32 25 42
0 16 2 15 21 -4 17 -17 19 -24 10 -41z m4739 28 c0 -5 -4 -10 -10 -10 -5 0
-10 5 -10 10 0 6 5 10 10 10 6 0 10 -4 10 -10z m3147 -92 c-3 -8 -6 -5 -6 6
-1 11 2 17 5 13 3 -3 4 -12 1 -19z m-7690 -234 l24 -27 -23 6 c-13 4 -29 2
-37 -2 -23 -14 -52 9 -40 31 14 26 48 22 76 -8z m3532 -146 c-12 -23 -22 -23
-43 1 -25 28 -13 42 23 28 24 -9 28 -14 20 -29z m4498 -23 c-42 -14 -46 -10
-16 18 21 19 26 20 36 7 9 -12 5 -17 -20 -25z m-6380 3 c-3 -8 -6 -5 -6 6 -1
11 2 17 5 13 3 -3 4 -12 1 -19z m1689 -63 c8 -7 18 -15 22 -17 17 -6 22 -44 8
-63 -12 -16 -17 -17 -44 -6 -34 14 -64 4 -81 -28 -6 -10 -19 -21 -30 -24 -18
-4 -16 3 14 49 19 30 35 61 35 68 0 34 13 48 38 41 13 -3 31 -12 38 -20z
m4634 -165 c0 -5 -4 -10 -9 -10 -6 0 -13 5 -16 10 -3 6 1 10 9 10 9 0 16 -4
16 -10z m-4840 -75 c-7 -9 -15 -13 -19 -10 -3 3 1 10 9 15 21 14 24 12 10 -5z
m-1570 -371 c0 -13 -4 -24 -10 -24 -5 0 -10 11 -10 25 0 14 -9 33 -19 42 -11
9 -17 21 -14 26 10 16 53 -41 53 -69z m5080 -179 c0 -13 4 -26 10 -30 5 -3 7
-12 4 -20 -5 -13 -10 -13 -35 1 -33 16 -37 39 -13 65 20 23 34 16 34 -16z
m-5300 -106 c0 -5 -7 -9 -15 -9 -15 0 -20 12 -9 23 8 8 24 -1 24 -14z m4530
-39 c0 -5 -4 -10 -10 -10 -5 0 -10 5 -10 10 0 6 5 10 10 10 6 0 10 -4 10 -10z
m536 -122 c-6 -40 -12 -44 -34 -25 -10 10 -28 17 -40 17 -25 0 -28 12 -8 32 9
9 27 13 50 10 35 -4 37 -6 32 -34z m-5409 -34 c-3 -3 -12 -4 -19 -1 -8 3 -5 6
6 6 11 1 17 -2 13 -5z m3702 -88 c23 -23 7 -29 -29 -11 -17 9 -40 13 -50 10
-16 -5 -18 -3 -13 10 5 13 14 16 41 11 20 -3 42 -12 51 -20z m-3501 -17 c-13
-8 -38 -1 -38 11 0 13 34 17 42 6 4 -6 2 -14 -4 -17z m-658 -139 c0 -6 -24
-20 -34 -20 -2 0 -3 16 -4 36 l-1 36 19 -22 c11 -13 20 -26 20 -30z m4260
-183 c0 -2 -8 -12 -19 -21 -17 -16 -19 -16 -24 4 -4 16 0 20 19 20 13 0 24 -2
24 -3z m-2100 -300 c0 -8 9 -22 20 -32 20 -18 20 -18 -3 -30 -52 -27 -60 -27
-53 -1 4 16 -1 32 -15 50 l-20 26 35 0 c24 0 36 -5 36 -13z m2220 -17 c-9 -17
-30 -28 -30 -16 0 16 15 36 26 36 12 0 12 -4 4 -20z m-1839 -48 c-6 -2 -18
-17 -26 -33 -19 -36 -41 -37 -49 -3 -9 33 7 52 47 56 31 3 52 -12 28 -20z
m1615 -50 c-17 -16 -18 -16 -5 5 7 12 15 20 18 17 3 -2 -3 -12 -13 -22z m-73
-512 c-5 -18 -7 -18 -30 -3 -16 11 -20 18 -12 23 20 13 47 0 42 -20z"/>
</g>
</svg>
